<?xml version="1.0" encoding="UTF-8"?>
<svg xmlns="http://www.w3.org/2000/svg" xmlns:xlink="http://www.w3.org/1999/xlink" width="24px" height="24px" preserveAspectRatio="xMidYMax meet"  viewBox="0 0 24 24" version="1.1">
<title>ArcGIS</title>
<g id="arcgis">
<path style=" stroke:none;fill-rule:nonzero;fill:rgb(100%,100%,100%);fill-opacity:1;" d="M 24 12 C 24 18.628906 18.628906 24 12 24 C 5.371094 24 0 18.628906 0 12 C 0 5.371094 5.371094 0 12 0 C 18.628906 0 24 5.371094 24 12 Z M 2.707031 9.003906 L 3.144531 9.816406 C 3.53125 10.496094 4.171875 10.996094 4.925781 11.210938 L 7.597656 11.984375 C 8.445312 12.214844 9 12.953125 9 13.789062 L 9 15.660156 C 9 16.175781 9.289062 16.644531 9.75 16.832031 C 10.210938 17.105469 10.5 17.574219 10.5 18.089844 L 10.5 19.917969 C 10.5 20.648438 11.199219 21.171875 11.902344 20.972656 C 12.660156 20.757812 13.242188 20.113281 13.433594 19.390625 L 13.566406 18.867188 C 13.761719 18.074219 14.277344 17.394531 14.984375 16.988281 L 15.367188 16.773438 C 16.070312 16.375 16.5 15.628906 16.5 14.816406 L 16.5 14.433594 C 16.5 13.832031 16.261719 13.261719 15.839844 12.839844 L 15.660156 12.660156 C 15.238281 12.238281 14.664062 11.957031 14.066406 11.957031 L 12.003906 11.957031 C 11.527344 11.957031 11.011719 11.863281 10.554688 11.605469 L 8.9375 10.679688 C 8.738281 10.566406 8.582031 10.378906 8.511719 10.15625 C 8.363281 9.707031 8.5625 9.21875 8.984375 9.003906 L 9.265625 8.867188 C 9.578125 8.714844 9.933594 8.6875 10.222656 8.796875 L 11.351562 9.160156 C 11.734375 9.285156 12.15625 9.140625 12.378906 8.808594 C 12.601562 8.476562 12.578125 8.039062 12.324219 7.734375 L 11.6875 6.976562 C 11.21875 6.414062 11.222656 5.59375 11.699219 5.039062 L 12.4375 4.175781 C 12.847656 3.695312 12.914062 3.007812 12.601562 2.457031 L 12.488281 2.261719 C 12.285156 2.253906 12.164062 2.25 12 2.25 C 7.644531 2.25 3.957031 5.105469 2.707031 9.003906 Z M 20.511719 7.242188 L 19.3125 7.726562 C 18.578125 8.019531 18.195312 8.835938 18.445312 9.589844 L 19.238281 11.96875 C 19.402344 12.453125 19.800781 12.824219 20.296875 12.953125 L 21.664062 13.289062 C 21.722656 12.867188 21.75 12.4375 21.75 12 C 21.75 10.273438 21.300781 8.652344 20.511719 7.242188 Z M 20.511719 7.242188 "/>
</g>
</svg>
