<?xml version="1.0" encoding="UTF-8"?>
<svg xmlns="http://www.w3.org/2000/svg" xmlns:xlink="http://www.w3.org/1999/xlink" width="24px" height="24px" preserveAspectRatio="xMidYMax meet" viewBox="0 0 21 24" version="1.1">
<title>Drupal</title>
<g id="drupal">
<path style=" stroke:none;fill-rule:nonzero;fill:rgb(100%,100%,100%);fill-opacity:1;" d="M 14.25 5.070312 C 12.570312 3.398438 10.976562 1.796875 10.503906 0 C 10.035156 1.796875 8.429688 3.398438 6.75 5.070312 C 4.242188 7.578125 1.394531 10.421875 1.394531 14.691406 C 1.285156 19.722656 5.273438 23.886719 10.300781 23.996094 C 15.332031 24.105469 19.496094 20.117188 19.605469 15.089844 C 19.609375 14.957031 19.609375 14.824219 19.605469 14.691406 C 19.605469 10.421875 16.757812 7.578125 14.25 5.070312 Z M 6.078125 15.523438 C 5.796875 15.871094 5.558594 16.25 5.363281 16.652344 C 5.335938 16.71875 5.277344 16.765625 5.207031 16.785156 L 5.128906 16.785156 C 4.925781 16.785156 4.699219 16.386719 4.699219 16.386719 C 4.636719 16.292969 4.582031 16.191406 4.527344 16.089844 L 4.488281 16.007812 C 3.960938 14.800781 4.417969 13.085938 4.417969 13.085938 C 4.644531 12.25 5.011719 11.457031 5.507812 10.746094 C 5.808594 10.296875 6.136719 9.863281 6.492188 9.449219 L 6.925781 9.882812 L 8.964844 11.964844 C 9.042969 12.054688 9.042969 12.1875 8.964844 12.277344 L 6.832031 14.640625 Z M 10.605469 21.488281 C 9.367188 21.484375 8.25 20.75 7.746094 19.621094 C 7.242188 18.488281 7.449219 17.167969 8.273438 16.242188 C 8.9375 15.453125 9.75 14.675781 10.632812 13.652344 C 11.675781 14.765625 12.359375 15.53125 13.03125 16.367188 C 13.082031 16.433594 13.128906 16.503906 13.167969 16.578125 C 13.535156 17.097656 13.730469 17.71875 13.730469 18.355469 C 13.734375 20.082031 12.339844 21.484375 10.613281 21.488281 Z M 16.515625 16.480469 C 16.476562 16.613281 16.363281 16.710938 16.226562 16.730469 L 16.167969 16.730469 C 16.042969 16.691406 15.9375 16.605469 15.875 16.496094 C 15.328125 15.675781 14.707031 14.90625 14.023438 14.199219 L 13.191406 13.335938 L 10.421875 10.460938 C 9.839844 9.921875 9.285156 9.355469 8.761719 8.757812 C 8.746094 8.738281 8.734375 8.714844 8.71875 8.695312 C 8.625 8.5625 8.550781 8.417969 8.496094 8.261719 L 8.496094 8.179688 C 8.417969 7.703125 8.582031 7.21875 8.929688 6.882812 C 9.464844 6.347656 10.003906 5.808594 10.515625 5.246094 C 11.078125 5.867188 11.679688 6.464844 12.269531 7.058594 C 13.476562 8.179688 14.570312 9.421875 15.53125 10.765625 C 16.34375 11.914062 16.785156 13.285156 16.796875 14.691406 C 16.792969 15.300781 16.695312 15.902344 16.515625 16.480469 Z M 16.515625 16.480469 "/>
</g>
</svg>
