<?xml version="1.0" encoding="UTF-8"?>
<svg xmlns="http://www.w3.org/2000/svg" xmlns:xlink="http://www.w3.org/1999/xlink" width="24px" height="24px" preserveAspectRatio="xMidYMax meet"  viewBox="0 0 21 24" version="1.1">
<title>Instagram</title>
<g id="instagram">
<path style=" stroke:none;fill-rule:nonzero;fill:rgb(100%,100%,100%);fill-opacity:1;" d="M 10.503906 6.609375 C 7.523438 6.609375 5.117188 9.015625 5.117188 11.996094 C 5.117188 14.976562 7.523438 17.382812 10.503906 17.382812 C 13.484375 17.382812 15.890625 14.976562 15.890625 11.996094 C 15.890625 9.015625 13.484375 6.609375 10.503906 6.609375 Z M 10.503906 15.496094 C 8.578125 15.496094 7.003906 13.925781 7.003906 11.996094 C 7.003906 10.0625 8.574219 8.492188 10.503906 8.492188 C 12.4375 8.492188 14.007812 10.0625 14.007812 11.996094 C 14.007812 13.925781 12.429688 15.496094 10.503906 15.496094 Z M 17.367188 6.390625 C 17.367188 7.085938 16.804688 7.644531 16.109375 7.644531 C 15.414062 7.644531 14.855469 7.082031 14.855469 6.390625 C 14.855469 5.695312 15.417969 5.132812 16.109375 5.132812 C 16.804688 5.132812 17.367188 5.695312 17.367188 6.390625 Z M 20.933594 7.664062 C 20.855469 5.980469 20.46875 4.492188 19.238281 3.261719 C 18.007812 2.035156 16.519531 1.648438 14.835938 1.566406 C 13.101562 1.46875 7.902344 1.46875 6.167969 1.566406 C 4.492188 1.644531 3 2.03125 1.765625 3.257812 C 0.535156 4.484375 0.15625 5.976562 0.0703125 7.660156 C -0.0273438 9.394531 -0.0273438 14.59375 0.0703125 16.328125 C 0.148438 18.007812 0.535156 19.5 1.765625 20.726562 C 3 21.957031 4.484375 22.339844 6.167969 22.425781 C 7.902344 22.523438 13.101562 22.523438 14.835938 22.425781 C 16.519531 22.34375 18.007812 21.960938 19.238281 20.726562 C 20.464844 19.5 20.851562 18.007812 20.933594 16.328125 C 21.03125 14.59375 21.03125 9.398438 20.933594 7.664062 Z M 18.695312 18.1875 C 18.328125 19.105469 17.621094 19.8125 16.695312 20.183594 C 15.3125 20.734375 12.03125 20.605469 10.503906 20.605469 C 8.976562 20.605469 5.691406 20.726562 4.3125 20.183594 C 3.394531 19.820312 2.6875 19.109375 2.316406 18.1875 C 1.765625 16.804688 1.894531 13.523438 1.894531 11.996094 C 1.894531 10.46875 1.773438 7.179688 2.316406 5.804688 C 2.679688 4.882812 3.390625 4.175781 4.3125 3.804688 C 5.695312 3.257812 8.976562 3.382812 10.503906 3.382812 C 12.03125 3.382812 15.320312 3.261719 16.695312 3.804688 C 17.617188 4.171875 18.324219 4.878906 18.695312 5.804688 C 19.242188 7.1875 19.117188 10.46875 19.117188 11.996094 C 19.117188 13.523438 19.242188 16.808594 18.695312 18.1875 Z M 18.695312 18.1875 "/>
</g>
</svg>
