<?xml version="1.0" encoding="UTF-8"?>
<svg xmlns="http://www.w3.org/2000/svg" xmlns:xlink="http://www.w3.org/1999/xlink" width="24px" height="24px" preserveAspectRatio="xMidYMax meet"  viewBox="0 0 21 24" version="1.1">
<title>LinkedIn</title>
<g id="linkedin">
<path style=" stroke:none;fill-rule:nonzero;fill:rgb(100%,100%,100%);fill-opacity:1;" d="M 4.699219 21 L 0.347656 21 L 0.347656 6.980469 L 4.699219 6.980469 Z M 2.519531 5.066406 C 1.128906 5.066406 0 3.914062 0 2.523438 C 0 1.128906 1.128906 0 2.519531 0 C 3.914062 0 5.042969 1.128906 5.042969 2.523438 C 5.042969 3.914062 3.914062 5.066406 2.519531 5.066406 Z M 20.996094 21 L 16.652344 21 L 16.652344 14.175781 C 16.652344 12.546875 16.617188 10.460938 14.386719 10.460938 C 12.125 10.460938 11.777344 12.230469 11.777344 14.058594 L 11.777344 21 L 7.429688 21 L 7.429688 6.980469 L 11.601562 6.980469 L 11.601562 8.890625 L 11.664062 8.890625 C 12.246094 7.789062 13.664062 6.628906 15.785156 6.628906 C 20.191406 6.628906 21 9.53125 21 13.296875 L 21 21 Z M 20.996094 21 "/>
</g>
</svg>
