<?xml version="1.0" encoding="UTF-8"?>
<svg xmlns="http://www.w3.org/2000/svg" xmlns:xlink="http://www.w3.org/1999/xlink" width="24px" height="23px" preserveAspectRatio="xMidYMax meet"  viewBox="0 0 23 23" version="1.1">
<title>Pinterest</title>
<g id="pinterest">
<path style=" stroke:none;fill-rule:nonzero;fill:rgb(100%,100%,100%);fill-opacity:1;" d="M 23 11.5 C 23 17.65625 17.851562 22.640625 11.5 22.640625 C 10.3125 22.640625 9.171875 22.464844 8.097656 22.140625 C 8.566406 21.402344 9.265625 20.1875 9.523438 19.222656 C 9.664062 18.699219 10.238281 16.570312 10.238281 16.570312 C 10.613281 17.261719 11.707031 17.851562 12.871094 17.851562 C 16.339844 17.851562 18.839844 14.761719 18.839844 10.921875 C 18.839844 7.242188 15.738281 4.488281 11.75 4.488281 C 6.789062 4.488281 4.148438 7.714844 4.148438 11.230469 C 4.148438 12.867188 5.050781 14.902344 6.484375 15.546875 C 6.699219 15.644531 6.816406 15.601562 6.867188 15.398438 C 6.90625 15.246094 7.097656 14.488281 7.1875 14.136719 C 7.214844 14.023438 7.203125 13.925781 7.109375 13.816406 C 6.640625 13.257812 6.261719 12.230469 6.261719 11.273438 C 6.261719 8.816406 8.179688 6.441406 11.453125 6.441406 C 14.277344 6.441406 16.257812 8.304688 16.257812 10.972656 C 16.257812 13.988281 14.6875 16.078125 12.640625 16.078125 C 11.515625 16.078125 10.664062 15.175781 10.9375 14.066406 C 11.261719 12.738281 11.890625 11.3125 11.890625 10.355469 C 11.890625 9.5 11.417969 8.785156 10.433594 8.785156 C 9.277344 8.785156 8.351562 9.941406 8.351562 11.492188 C 8.351562 12.480469 8.695312 13.144531 8.695312 13.144531 C 8.695312 13.144531 7.558594 17.808594 7.351562 18.679688 C 7.117188 19.640625 7.210938 20.996094 7.308594 21.875 C 3.03125 20.253906 0 16.222656 0 11.5 C 0 5.34375 5.148438 0.359375 11.5 0.359375 C 17.851562 0.359375 23 5.34375 23 11.5 Z M 23 11.5 "/>
</g>
</svg>
