<?xml version="1.0" encoding="UTF-8"?>
<svg xmlns="http://www.w3.org/2000/svg" xmlns:xlink="http://www.w3.org/1999/xlink" width="24px" height="24px" preserveAspectRatio="xMidYMax meet"  viewBox="0 0 24 24" version="1.1">
<title>Socrata</title>
<g id="socrata">
  <path style=" stroke:none;fill-rule:evenodd;fill:rgb(100%,100%,100%);fill-opacity:1;" d="M 11.171875 0.0195312 C 11.113281 0.0234375 10.929688 0.0429688 10.761719 0.0585938 C 5.269531 0.574219 0.726562 5.042969 0.0820312 10.5625 C -0.765625 17.84375 4.996094 24.175781 12.289062 23.988281 C 19.621094 23.792969 25.035156 17.222656 23.832031 9.976562 C 23.683594 9.089844 23.152344 7.328125 22.976562 7.152344 C 22.957031 7.132812 21.460938 7.816406 21.394531 7.875 C 21.382812 7.882812 21.417969 7.992188 21.46875 8.117188 C 23.757812 13.519531 20.789062 19.902344 15.140625 21.730469 C 7.8125 24.101562 0.570312 17.761719 1.929688 10.167969 C 3.003906 4.171875 9.269531 0.367188 15.023438 2.214844 C 15.121094 2.246094 15.207031 2.265625 15.214844 2.261719 C 15.234375 2.242188 15.789062 0.660156 15.789062 0.625 C 15.789062 0.53125 14.273438 0.183594 13.367188 0.0664062 C 13.054688 0.0273438 11.445312 -0.0078125 11.171875 0.0195312 M 11.371094 3.488281 C 6.84375 3.8125 3.335938 7.703125 3.480469 12.238281 C 3.652344 17.578125 8.558594 21.433594 13.777344 20.335938 C 18.503906 19.339844 21.445312 14.589844 20.257812 9.871094 C 20.152344 9.453125 19.863281 8.621094 19.824219 8.621094 C 19.8125 8.621094 18.257812 9.363281 18.246094 9.375 C 18.242188 9.375 18.292969 9.523438 18.355469 9.699219 C 20.332031 15.152344 14.835938 20.449219 9.472656 18.257812 C 4.253906 16.132812 3.765625 8.984375 8.640625 6.136719 C 10.199219 5.222656 12.546875 4.96875 14.035156 5.546875 C 14.085938 5.566406 14.671875 3.925781 14.628906 3.886719 C 14.613281 3.875 14.492188 3.835938 14.351562 3.796875 C 13.332031 3.515625 12.382812 3.417969 11.371094 3.488281 M 11.414062 6.972656 C 7.527344 7.460938 5.625 11.929688 7.980469 15.050781 C 10.59375 18.515625 16.097656 17.234375 16.964844 12.953125 C 17.125 12.152344 16.976562 10.574219 16.699219 10.144531 C 16.667969 10.097656 15.089844 10.851562 15.105469 10.90625 C 15.476562 12.203125 15.234375 13.328125 14.390625 14.226562 C 12.351562 16.394531 8.730469 14.972656 8.726562 12 C 8.726562 9.886719 10.726562 8.289062 12.742188 8.796875 C 12.957031 8.851562 12.894531 8.953125 13.222656 8.019531 C 13.554688 7.070312 13.546875 7.175781 13.292969 7.109375 C 12.785156 6.972656 11.910156 6.910156 11.414062 6.972656 "/>
  <path style=" stroke:none;fill-rule:evenodd;fill:rgb(100%,100%,100%);fill-opacity:1;" d="M 17.503906 0.0625 C 17.46875 0.160156 16.40625 3.210938 14.601562 8.394531 C 14.363281 9.082031 14.171875 9.648438 14.179688 9.652344 C 14.1875 9.660156 15.480469 9.050781 17.058594 8.300781 C 18.632812 7.550781 20.671875 6.585938 21.582031 6.152344 C 22.496094 5.71875 23.246094 5.347656 23.253906 5.332031 C 23.269531 5.289062 22.835938 4.625 22.492188 4.164062 C 21.21875 2.453125 19.539062 1.03125 17.710938 0.113281 C 17.523438 0.0195312 17.519531 0.015625 17.503906 0.0625 "/>
</g>
</svg>
