<?xml version="1.0" encoding="UTF-8"?>
<svg xmlns="http://www.w3.org/2000/svg" xmlns:xlink="http://www.w3.org/1999/xlink" width="24px" height="24px" preserveAspectRatio="xMidYMax meet"  viewBox="0 0 21 24" version="1.1">
<title>TikTok</title>
<g id="tiktok">
<path style=" stroke:none;fill-rule:nonzero;fill:rgb(100%,100%,100%);fill-opacity:1;" d="M 21 9.839844 C 18.9375 9.84375 16.921875 9.199219 15.246094 8 L 15.246094 16.378906 C 15.242188 19.554688 13.269531 22.398438 10.296875 23.511719 C 7.320312 24.625 3.964844 23.773438 1.878906 21.378906 C -0.207031 18.980469 -0.585938 15.542969 0.925781 12.746094 C 2.4375 9.953125 5.523438 8.390625 8.671875 8.828125 L 8.671875 13.039062 C 7.230469 12.585938 5.660156 13.113281 4.777344 14.339844 C 3.898438 15.570312 3.90625 17.226562 4.800781 18.445312 C 5.695312 19.664062 7.273438 20.171875 8.710938 19.703125 C 10.148438 19.230469 11.121094 17.890625 11.121094 16.378906 L 11.121094 0 L 15.246094 0 C 15.242188 0.347656 15.269531 0.695312 15.332031 1.039062 C 15.621094 2.585938 16.535156 3.945312 17.859375 4.800781 C 18.789062 5.414062 19.882812 5.742188 21 5.742188 Z M 21 9.839844 "/>
</g>
</svg>
