<?xml version="1.0" encoding="UTF-8"?>
<svg xmlns="http://www.w3.org/2000/svg" xmlns:xlink="http://www.w3.org/1999/xlink" width="24px" height="24px" preserveAspectRatio="xMidYMax meet"  viewBox="0 0 24 24" version="1.1">
<title>Twitter</title>
<g id="twitter">
<path style=" stroke:none;fill-rule:nonzero;fill:rgb(100%,100%,100%);fill-opacity:1;" d="M 21.53125 7.113281 C 21.546875 7.324219 21.546875 7.539062 21.546875 7.75 C 21.546875 14.253906 16.597656 21.746094 7.554688 21.746094 C 4.765625 21.746094 2.175781 20.9375 0 19.539062 C 0.394531 19.582031 0.777344 19.597656 1.1875 19.597656 C 3.488281 19.597656 5.605469 18.824219 7.292969 17.496094 C 5.132812 17.453125 3.320312 16.035156 2.695312 14.085938 C 3 14.132812 3.304688 14.164062 3.625 14.164062 C 4.066406 14.164062 4.507812 14.101562 4.917969 13.996094 C 2.664062 13.539062 0.972656 11.558594 0.972656 9.167969 L 0.972656 9.105469 C 1.628906 9.472656 2.390625 9.699219 3.199219 9.730469 C 1.871094 8.847656 1.003906 7.339844 1.003906 5.632812 C 1.003906 4.722656 1.25 3.882812 1.675781 3.152344 C 4.097656 6.136719 7.734375 8.085938 11.816406 8.300781 C 11.742188 7.933594 11.695312 7.554688 11.695312 7.171875 C 11.695312 4.460938 13.886719 2.253906 16.613281 2.253906 C 18.03125 2.253906 19.308594 2.847656 20.207031 3.808594 C 21.320312 3.59375 22.386719 3.183594 23.328125 2.621094 C 22.964844 3.761719 22.1875 4.722656 21.167969 5.328125 C 22.15625 5.222656 23.117188 4.949219 24 4.570312 C 23.328125 5.542969 22.492188 6.410156 21.53125 7.113281 Z M 21.53125 7.113281 "/>
</g>
</svg>
