<?xml version="1.0" encoding="UTF-8"?>
<svg xmlns="http://www.w3.org/2000/svg" xmlns:xlink="http://www.w3.org/1999/xlink" width="24px" height="24px" preserveAspectRatio="xMidYMax meet"  viewBox="0 0 27 24" version="1.1">
<title>YouTube</title>
<g id="youtube">
<path style=" stroke:none;fill-rule:nonzero;fill:rgb(100%,100%,100%);fill-opacity:1;" d="M 25.765625 5.816406 C 25.46875 4.707031 24.601562 3.835938 23.5 3.539062 C 21.503906 3 13.5 3 13.5 3 C 13.5 3 5.496094 3 3.5 3.539062 C 2.398438 3.835938 1.53125 4.707031 1.234375 5.816406 C 0.699219 7.824219 0.699219 12.019531 0.699219 12.019531 C 0.699219 12.019531 0.699219 16.210938 1.234375 18.21875 C 1.53125 19.328125 2.398438 20.164062 3.5 20.460938 C 5.496094 21 13.5 21 13.5 21 C 13.5 21 21.503906 21 23.5 20.460938 C 24.601562 20.164062 25.46875 19.328125 25.765625 18.21875 C 26.300781 16.210938 26.300781 12.019531 26.300781 12.019531 C 26.300781 12.019531 26.300781 7.824219 25.765625 5.816406 Z M 10.882812 15.824219 L 10.882812 8.210938 L 17.574219 12.019531 Z M 10.882812 15.824219 "/>
</g>
</svg>
